<?xml version="1.0" standalone="no"?><!DOCTYPE svg PUBLIC "-//W3C//DTD SVG 1.1//EN" "http://www.w3.org/Graphics/SVG/1.1/DTD/svg11.dtd"><svg t="1643337660493" class="icon" viewBox="0 0 1024 1024" version="1.1" xmlns="http://www.w3.org/2000/svg" p-id="1919" xmlns:xlink="http://www.w3.org/1999/xlink" width="200" height="200"><defs><style type="text/css"></style></defs><path d="M510.650771 67.537186c-245.864664 0-445.138196 199.273533-445.138196 445.138196 0 245.814522 199.273533 445.138196 445.138196 445.138196 245.865687 0 445.138196-199.323675 445.138196-445.138196C955.788967 266.811742 756.515435 67.537186 510.650771 67.537186zM803.600823 531.568684c-2.52245 6.034437-6.133697 11.524474-10.682293 16.075117l-182.160783 182.209902c-19.339464 19.290345-50.647517 19.290345-69.985958 0-19.289322-19.337417-19.289322-50.646494 0-69.985958l97.781-97.732905L263.351432 562.134841c-27.301809 0-49.459458-22.157649-49.459458-49.459458s22.157649-49.459458 49.459458-49.459458l375.201357 0-97.781-97.732905c-19.289322-19.338441-19.289322-50.646494 0-69.985958 19.337417-19.289322 50.64547-19.289322 69.985958 0l182.160783 182.209902 0 0c0.049119 0.050142 0.098237 0.148379 0.148379 0.197498 4.451382 4.500501 8.061606 9.892301 10.534937 15.877619 2.472308 6.033413 3.808746 12.463869 3.808746 18.893302C807.409568 519.105838 806.07313 525.535271 803.600823 531.568684z" p-id="1920"></path></svg>