<?xml version="1.0" standalone="no"?><!DOCTYPE svg PUBLIC "-//W3C//DTD SVG 1.1//EN" "http://www.w3.org/Graphics/SVG/1.1/DTD/svg11.dtd"><svg t="1643337833885" class="icon" viewBox="0 0 1024 1024" version="1.1" xmlns="http://www.w3.org/2000/svg" p-id="3654" xmlns:xlink="http://www.w3.org/1999/xlink" width="200" height="200"><defs><style type="text/css"></style></defs><path d="M692.158536 494.852299l238.334064-208.574305A44.799636 44.799636 0 0 1 1004.795996 320.00572v511.99584a172.798596 172.798596 0 0 1-172.798596 172.798596H192.0026A172.798596 172.798596 0 0 1 19.204004 832.00156V608.00338a44.799636 44.799636 0 0 1 53.567565-43.903643l140.990854 28.159771L421.952732 443.524716a44.799636 44.799636 0 0 1 36.9277-7.039942l233.278104 58.367525zM108.803276 832.00156A83.199324 83.199324 0 0 0 192.0026 915.200884h639.9948a83.199324 83.199324 0 0 0 83.199324-83.199324V418.756918l-181.694524 158.974708a44.799636 44.799636 0 0 1-40.319672 9.727921l-235.966083-59.007521-207.166317 148.030798a44.799636 44.799636 0 0 1-34.815717 7.423939L108.803276 662.658936V832.00156z" fill="#2c2c2c" p-id="3655"></path><path d="M638.398973 381.57322a63.99948 63.99948 0 0 0 60.159511-13.759888l287.99766-255.997921a63.99948 63.99948 0 0 0-85.119308-95.615223L639.806962 248.838298l-190.142456-54.399558a63.99948 63.99948 0 0 0-54.783554 9.471923L194.882577 346.757503 95.555384 321.925704a63.99948 63.99948 0 0 0-31.103748 124.158992l127.99896 31.99974a63.99948 63.99948 0 0 0 52.735572-9.983919l198.910384-142.078846 194.302421 55.551549z" fill="#2c2c2c" p-id="3656"></path></svg>